Coordinates
version=1
nRows=29
nColumns=24
inDegrees=yes

Units are S.I. units (second, meters, Newtons, ...)
Angles are in degrees.

endheader
time	pelvis_tilt	pelvis_list	pelvis_rotation	pelvis_tx	pelvis_ty	pelvis_tz	hip_flexion_r	hip_adduction_r	hip_rotation_r	knee_angle_r	ankle_angle_r	subtalar_angle_r	mtp_angle_r	hip_flexion_l	hip_adduction_l	hip_rotation_l	knee_angle_l	ankle_angle_l	subtalar_angle_l	mtp_angle_l	lumbar_extension	lumbar_bending	lumbar_rotation
      2.98000000	      0.20039845	      2.29219741	      5.71174790	     -1.52644599	      0.91447076	      0.22606370	     29.31056746	     -1.81962770	     -4.29591795	    -14.70857728	     10.64868971	     -4.11614326	      0.00000000	    -12.74409521	      7.05946847	     10.58314466	    -19.92159896	     26.58732513	    -11.90573493	      0.00000000	    -14.63386348	     -2.09773190	    -18.23230671
      2.98500000	      0.35341732	      2.01276859	      5.78723174	     -1.51850064	      0.91357964	      0.22625505	     29.30427541	     -1.46881637	     -4.11248792	    -15.69472151	     10.10559559	     -4.77935366	      0.00000000	    -12.87232123	      6.64274349	     10.01749527	    -20.91734080	     26.64188214	    -11.13904137	      0.00000000	    -14.70378731	     -1.68249428	    -18.33786043
      2.99000000	      0.38256229	      1.72736554	      5.70334252	     -1.51056662	      0.91255168	      0.22672107	     29.45244074	     -1.02044443	     -3.64826567	    -16.70576225	      9.33648301	     -5.61651896	      0.00000000	    -12.80336022	      6.25299184	      9.21682939	    -22.00801969	     26.61383115	    -10.34167032	      0.00000000	    -14.62513869	     -1.31490686	    -18.23130450
      2.99500000	      0.39928495	      1.40975276	      5.63279281	     -1.50264349	      0.91162597	      0.22720800	     29.60778649	     -0.54665256	     -3.24868655	    -17.72176250	      8.49945013	     -6.40021905	      0.00000000	    -12.65962296	      5.82110101	      8.43441995	    -23.19971549	     26.46984441	     -9.57365439	      0.00000000	    -14.53538564	     -0.91639186	    -18.13960673
      3.00000000	      0.40678852	      1.06255516	      5.52359991	     -1.49472017	      0.91079187	      0.22777222	     29.77284379	     -0.02004079	     -2.80871235	    -18.74500111	      7.63206426	     -7.13705112	      0.00000000	    -12.44253181	      5.35050019	      7.56763313	    -24.48814990	     26.21904902	     -8.77367945	      0.00000000	    -14.43469514	     -0.49006934	    -17.97753642
      3.00500000	      0.39782326	      0.66379034	      5.38726470	     -1.48675038	      0.91003137	      0.22839337	     29.96331167	      0.56846928	     -2.41749764	    -19.78925961	      6.78476353	     -7.79681998	      0.00000000	    -12.15520279	      4.82162767	      6.67424455	    -25.85922796	     25.85998439	     -8.00887648	      0.00000000	    -14.30294216	     -0.01343453	    -17.79504441
      3.01000000	      0.37953974	      0.23762325	      5.22279571	     -1.47877022	      0.90935217	      0.22908170	     30.16771636	      1.20278270	     -2.01607277	    -20.85040086	      5.98226613	     -8.40066796	      0.00000000	    -11.79742057	      4.25360758	      5.74369022	    -27.32575865	     25.38061817	     -7.25566484	      0.00000000	    -14.15919799	      0.48553651	    -17.58153202
      3.01500000	      0.35449736	     -0.23396978	      5.02165831	     -1.47074142	      0.90873962	      0.22978990	     30.39109264	      1.89209009	     -1.66178910	    -21.94415556	      5.26224227	     -8.88623759	      0.00000000	    -11.38798908	      3.64135440	      4.82281048	    -28.86384961	     24.77887168	     -6.58427840	      0.00000000	    -13.99987863	      1.03835366	    -17.34216450
      3.02000000	      0.32272541	     -0.65528181	      4.82942862	     -1.46281843	      0.90821555	      0.23062793	     30.59720418	      2.57065897	     -1.12672374	    -23.01045191	      4.54706319	     -9.51519118	      0.00000000	    -10.88271945	      3.03962349	      3.86506678	    -30.53933482	     24.03958380	     -5.83675423	      0.00000000	    -13.86068150	      1.51165864	    -17.14081743
      3.02500000	      0.28952791	     -1.12408103	      4.62224826	     -1.45478294	      0.90774808	      0.23142436	     30.79532305	      3.28624550	     -0.71167312	    -24.07963207	      3.99472312	     -9.97116913	      0.00000000	    -10.33667215	      2.38889293	      2.95596207	    -32.27921054	     23.15269778	     -5.20416040	      0.00000000	    -13.70024553	      2.04731104	    -16.89121136
      3.03000000	      0.25437380	     -1.59938690	      4.41395164	     -1.44672158	      0.90733349	      0.23223949	     30.97007831	      4.01454170	     -0.30474175	    -25.11885773	      3.54668395	    -10.39673505	      0.00000000	     -9.73400137	      1.71494850	      2.08111822	    -34.10060756	     22.12250715	     -4.63545100	      0.00000000	    -13.53607569	      2.58623070	    -16.63296651
      3.03500000	      0.21997267	     -2.06137688	      4.20857517	     -1.43865420	      0.90696604	      0.23307015	     31.10857571	      4.73547663	      0.09084981	    -26.10699708	      3.21167850	    -10.82528668	      0.00000000	     -9.07837017	      1.03858860	      1.25292376	    -35.99740802	     20.94562159	     -4.13299652	      0.00000000	    -13.37599348	      3.10615797	    -16.39467896
      3.04000000	      0.17953224	     -2.50249180	      4.00720261	     -1.43058117	      0.90663068	      0.23397090	     31.21035347	      5.44723278	      0.48374364	    -27.03112147	      2.98621008	    -11.29328731	      0.00000000	     -8.36507560	      0.36025335	      0.46479332	    -37.95740555	     19.63281462	     -3.68637486	      0.00000000	    -13.21010673	      3.58638406	    -16.18347864
      3.04500000	      0.15546035	     -2.96805517	      3.80686618	     -1.42252829	      0.90633816	      0.23479228	     31.26333986	      6.16377476	      0.78138985	    -27.90256194	      2.90871624	    -11.63510022	      0.00000000	     -7.62755000	     -0.33660153	     -0.22536094	    -39.96161863	     18.22038316	     -3.37543415	      0.00000000	    -13.07237066	      4.11278257	    -15.94568589
      3.05000000	      0.10785669	     -3.39961601	      3.60897538	     -1.41448624	      0.90603875	      0.23571545	     31.28902261	      6.86142139	      1.07899570	    -28.69080624	      2.94138653	    -12.06779994	      0.00000000	     -6.81928214	     -1.02607192	     -0.89343247	    -42.00670314	     16.71345168	     -3.11013052	      0.00000000	    -12.90836939	      4.57411131	    -15.75746872
      3.05500000	      0.07872828	     -3.84653083	      3.41728829	     -1.40649885	      0.90580374	      0.23655271	     31.25424370	      7.55281714	      1.29694073	    -29.40911030	      3.11221417	    -12.37269291	      0.00000000	     -5.99634475	     -1.71385607	     -1.44269494	    -44.06222157	     15.12678866	     -3.02255667	      0.00000000	    -12.78033653	      5.06646370	    -15.53292143
      3.06000000	      0.03705809	     -4.27719644	      3.22321004	     -1.39854531	      0.90557958	      0.23742010	     31.18316978	      8.22907144	      1.48215039	    -30.04531983	      3.40052670	    -12.68367267	      0.00000000	     -5.12586577	     -2.39133506	     -1.94780266	    -46.12256429	     13.49669943	     -3.04380195	      0.00000000	    -12.64336518	      5.53152883	    -15.32328109
      3.06500000	     -0.03965372	     -4.69736758	      3.01905626	     -1.39065624	      0.90533334	      0.23834042	     31.10800844	      8.89766261	      1.64939574	    -30.61058393	      3.77214344	    -12.99279515	      0.00000000	     -4.18364515	     -3.06168482	     -2.41500997	    -48.18205787	     11.86588410	     -3.19098073	      0.00000000	    -12.47582007	      5.97100202	    -15.12008316
      3.07000000	     -0.10279248	     -5.10954530	      2.81619902	     -1.38282837	      0.90516249	      0.23920282	     30.97368451	      9.54384374	      1.77198651	    -31.10159199	      4.24323271	    -13.22325898	      0.00000000	     -3.23253391	     -3.70930631	     -2.81486142	    -50.20929580	     10.22192020	     -3.52313382	      0.00000000	    -12.33631596	      6.40697889	    -14.89948120
      3.07500000	     -0.17700818	     -5.51289209	      2.60595936	     -1.37507453	      0.90503050	      0.24007197	     30.80730566	     10.17630409	      1.87493345	    -31.51713627	      4.78042388	    -13.41851352	      0.00000000	     -2.24374556	     -4.34325934	     -3.18006003	    -52.20493696	      8.61028217	     -4.01678292	      0.00000000	    -12.19931319	      6.83166876	    -14.67006674
      3.08000000	     -0.19317449	     -5.93126806	      2.40361420	     -1.36730271	      0.90504687	      0.24092845	     30.52037789	     10.81947216	      1.98048923	    -31.84624385	      5.42097822	    -13.52638008	      0.00000000	     -1.31453766	     -4.99256325	     -3.50861093	    -54.13146838	      7.07816740	     -4.65999002	      0.00000000	    -12.12324277	      7.26742825	    -14.45202198
      3.08500000	     -0.44135195	     -6.27408652	      2.16643638	     -1.35980624	      0.90481316	      0.24182990	     30.48098919	     11.38328499	      2.12531913	    -32.16288459	      5.96756384	    -13.68285926	      0.00000000	     -0.07566440	     -5.53060114	     -3.77133293	    -56.06484345	      5.60673338	     -5.47512781	      0.00000000	    -11.81935023	      7.60635886	    -14.20014767
      3.09000000	     -0.55108582	     -6.64146293	      1.95275984	     -1.35229368	      0.90486393	      0.24266126	     30.24058139	     11.95002602	      2.20561191	    -32.39358202	      6.60397616	    -13.72237321	      0.00000000	      1.00859529	     -6.09766811	     -4.00925781	    -57.90050489	      4.27062366	     -6.42667690	      0.00000000	    -11.68002880	      7.97997951	    -13.92270452
      3.09500000	     -0.59507845	     -7.03404335	      1.73371202	     -1.34485041	      0.90509782	      0.24351429	     29.89365236	     12.53627276	      2.25795108	    -32.55405315	      7.22365507	    -13.70552632	      0.00000000	      2.02978625	     -6.70681856	     -4.26017843	    -59.66443857	      3.13152280	     -7.45593522	      0.00000000	    -11.63862936	      8.37950983	    -13.62788659
      3.10000000	     -0.77868434	     -7.33446557	      1.53082149	     -1.33747475	      0.90524297	      0.24432097	     29.66702296	     13.01788874	      2.37855504	    -32.69041091	      7.86610815	    -13.69100928	      0.00000000	      3.21839831	     -7.17411243	     -4.39856962	    -61.35166947	      2.11909571	     -8.65321401	      0.00000000	    -11.42489965	      8.67280417	    -13.34800107
      3.10500000	     -0.91442246	     -7.64685719	      1.32981660	     -1.33017082	      0.90553947	      0.24512676	     29.36045881	     13.50015022	      2.48000906	    -32.77310608	      8.50680010	    -13.58555194	      0.00000000	      4.36121947	     -7.66975186	     -4.55108795	    -62.96115247	      1.37660881	     -9.87874169	      0.00000000	    -11.28372470	      8.97616259	    -13.08681660
      3.11000000	     -0.97926908	     -7.95811983	      1.15434155	     -1.32293240	      0.90604975	      0.24589041	     28.94845112	     13.96491163	      2.55155948	    -32.79433254	      9.08634259	    -13.48359125	      0.00000000	      5.43306444	     -8.15947842	     -4.66160443	    -64.47661947	      0.86410875	    -11.13530197	      0.00000000	    -11.24228787	      9.27745416	    -12.77215751
      3.11500000	     -1.09629007	     -8.20291219	      0.99928802	     -1.31569947	      0.90660573	      0.24659072	     28.55423999	     14.34887414	      2.66346138	    -32.77053189	      9.69942859	    -13.35355055	      0.00000000	      6.56452629	     -8.55521943	     -4.71374761	    -65.88955818	      0.52288148	    -12.43177194	      0.00000000	    -11.12528684	      9.50771878	    -12.50618402
      3.12000000	     -1.18016976	     -8.42250141	      0.86196209	     -1.30851999	      0.90729729	      0.24723831	     28.10394219	     14.69256273	      2.76713783	    -32.71086778	     10.28049198	    -13.19648519	      0.00000000	      7.66265334	     -8.92115139	     -4.74770030	    -67.20567008	      0.42157736	    -13.68128259	      0.00000000	    -11.05573900	      9.71224338	    -12.25125908
